<?xml version="1.0" encoding="iso-8859-1"?>
<!-- Generator: Adobe Illustrator 18.1.1, SVG Export Plug-In . SVG Version: 6.00 Build 0)  -->
<svg version="1.1" id="Capa_1" xmlns="http://www.w3.org/2000/svg" xmlns:xlink="http://www.w3.org/1999/xlink" x="0px" y="0px"
	 viewBox="0 0 76 76" style="enable-background:new 0 0 76 76;" xml:space="preserve">
<g id="_x37_7_Essential_Icons_28_">
	<path id="Left_Arrow" d="M45.9,55.9c-0.4,0.4-0.9,0.6-1.4,0.6s-1-0.2-1.4-0.6L26.1,39c-0.8-0.8-0.8-2,0-2.8l16.1-16.1
		c0.8-0.8,2.1-0.8,2.8,0c0.8,0.8,0.8,2,0,2.8L30.4,37.6l15.5,15.5C46.6,53.9,46.6,55.1,45.9,55.9z M76,38c0,21-17,38-38,38
		S0,59,0,38S17,0,38,0S76,17,76,38z M72,38C72,19.2,56.8,4,38,4S4,19.2,4,38s15.2,34,34,34S72,56.8,72,38z"/>
</g>
<g>
</g>
<g>
</g>
<g>
</g>
<g>
</g>
<g>
</g>
<g>
</g>
<g>
</g>
<g>
</g>
<g>
</g>
<g>
</g>
<g>
</g>
<g>
</g>
<g>
</g>
<g>
</g>
<g>
</g>
</svg>
