<?xml version="1.0" encoding="utf-8"?>
<!-- Generator: Adobe Illustrator 16.0.0, SVG Export Plug-In . SVG Version: 6.00 Build 0)  -->
<!DOCTYPE svg PUBLIC "-//W3C//DTD SVG 1.1//EN" "http://www.w3.org/Graphics/SVG/1.1/DTD/svg11.dtd">
<svg version="1.1" id="Layer_1" xmlns="http://www.w3.org/2000/svg" xmlns:xlink="http://www.w3.org/1999/xlink" x="0px" y="0px"
	 width="142.135px" height="250px" viewBox="0 0 142.135 250" enable-background="new 0 0 142.135 250" xml:space="preserve">
<g>
	<rect x="18.613" y="4.5" fill="#005B55" width="104.186" height="214.608"/>
</g>
<g>
	<path fill="#005B55" d="M25.372,225.117l5.435,19.825h1.079v0.937h-6.584v-0.937h1.61l-1.431-5.722h-3.675l-0.954,4.118
		c-0.065,0.371-0.116,0.601-0.112,0.928c0.008,0.534,0.385,0.744,0.803,0.744h0.756v0.866h-4.269v-0.835h0.384
		c0.794-0.09,1.158-0.507,1.409-1.495l4.602-18.43H25.372 M25.22,238.326l-1.567-6.385h-0.039l-1.545,6.385H25.22z"/>
	<g>
		<path fill="#005B55" d="M25.372,225.117l5.435,19.825h1.079v0.937h-6.584v-0.937h1.61l-1.431-5.722h-3.675l-0.954,4.118
			c-0.065,0.371-0.116,0.601-0.112,0.928c0.008,0.534,0.385,0.744,0.803,0.744h0.756v0.866h-4.269v-0.835h0.384
			c0.794-0.09,1.158-0.507,1.409-1.495l4.602-18.43H25.372z M25.22,238.326l-1.567-6.385h-0.039l-1.545,6.385H25.22z"/>
	</g>
	<path fill="#005B55" d="M35.828,226.696v5.836h1.889v0.883h-1.889v9.584c0,0.935,0.137,1.582,0.617,1.582
		c0.52,0,0.855-0.868,1.075-1.32l0.535,0.391c-0.647,1.552-1.356,2.503-3.013,2.503c-0.882,0-2.424-0.889-2.424-3.459v-9.28h-1.149
		v-0.878c2.445,0,3.524-3.266,3.608-5.847L35.828,226.696"/>
	<path fill="#005B55" d="M35.828,226.696v5.836h1.889v0.883h-1.889v9.584c0,0.935,0.137,1.582,0.617,1.582
		c0.52,0,0.855-0.868,1.075-1.32l0.535,0.391c-0.647,1.552-1.356,2.503-3.013,2.503c-0.882,0-2.424-0.889-2.424-3.459v-9.28h-1.149
		v-0.878c2.445,0,3.524-3.266,3.608-5.847L35.828,226.696z"/>
	<polyline fill="#005B55" points="43.147,225.117 43.145,244.88 44.577,244.88 44.577,245.879 38.49,245.882 38.49,244.88 
		39.934,244.88 39.934,226.018 38.49,226.018 38.49,225.117 43.147,225.117 	"/>
	<polygon fill="#005B55" points="43.147,225.117 43.145,244.88 44.577,244.88 44.577,245.879 38.49,245.882 38.49,244.88 
		39.934,244.88 39.934,226.018 38.49,226.018 38.49,225.117 	"/>
	<path fill="#005B55" d="M51.557,244.612c-0.115,0.184-0.967,1.521-2.78,1.521"/>
	<path fill="#005B55" d="M51.557,244.612c-0.115,0.184-0.967,1.521-2.78,1.521"/>
	<path fill="#005B55" d="M61.128,232.615v1.593h0.041c0.687-1.116,1.736-1.979,3.232-1.979c2.007,0,2.972,1.47,2.972,4.725v8.016
		h1.457v0.931h-5.817v-0.931h1.138v-9.312c0-1.474-0.429-1.98-0.946-1.98c-1.125,0.006-2.048,2.121-2.048,3.429v7.87h1.149v0.924
		H56.5v-0.931h1.456v-11.464H56.5v-0.888h4.629"/>
	<path fill="#005B55" d="M61.128,232.615v1.593h0.041c0.687-1.116,1.736-1.979,3.232-1.979c2.007,0,2.972,1.47,2.972,4.725v8.016
		h1.457v0.931h-5.817v-0.931h1.138v-9.312c0-1.474-0.429-1.98-0.946-1.98c-1.125,0.006-2.048,2.121-2.048,3.429v7.87h1.149v0.924
		H56.5v-0.931h1.456v-11.464H56.5v-0.888h4.629V232.615z"/>
	<path fill="#005B55" d="M73.444,226.71v5.839h1.89v0.883h-1.89v9.584c0,0.935,0.139,1.581,0.614,1.581
		c0.524,0,0.86-0.864,1.077-1.321l0.534,0.393c-0.645,1.552-1.356,2.503-3.014,2.503c-0.883,0-2.42-0.889-2.42-3.46v-9.279h-1.15
		v-0.879c2.44,0,3.522-3.261,3.609-5.843H73.444"/>
	<path fill="#005B55" d="M73.444,226.71v5.839h1.89v0.883h-1.89v9.584c0,0.935,0.139,1.581,0.614,1.581
		c0.524,0,0.86-0.864,1.077-1.321l0.534,0.393c-0.645,1.552-1.356,2.503-3.014,2.503c-0.883,0-2.42-0.889-2.42-3.46v-9.279h-1.15
		v-0.879c2.44,0,3.522-3.261,3.609-5.843H73.444z"/>
	<path fill="#005B55" d="M48.759,246.128c-1.625,0-3.375-1.053-3.375-3.72c0-3.104,1.904-3.956,4.107-4.196l1.832-0.24v-2.345
		c0-1.793-0.226-2.609-1.563-2.609c-0.811,0-1.696,0.295-1.693,0.666c0,0.381,1.027,0.445,1.027,1.796
		c0,1.244-0.518,2.019-1.445,2.019c-1.006,0-1.502-0.94-1.502-2.169c0-1.757,1.635-3.214,3.76-3.214
		c2.156,0,4.515,0.914,4.515,4.321v6.619c0.008,0.933-0.035,1.443,0.342,1.443c0.337,0,0.484-0.895,0.484-1.673h0.707
		c0.165,2.11-0.945,3.271-2.304,3.271c-1.199,0-1.769-0.639-2.111-1.49 M51.322,238.901l-1.438,0.211
		c-1.358,0.237-1.25,1.467-1.25,2.636c0,1.559,0.093,3.137,1.25,3.137c0.92,0,1.445-1.515,1.438-2.781V238.901z"/>
	<path fill="#005B55" d="M48.759,246.128c-1.625,0-3.375-1.053-3.375-3.72c0-3.104,1.904-3.956,4.107-4.196l1.832-0.24v-2.345
		c0-1.793-0.226-2.609-1.563-2.609c-0.811,0-1.696,0.295-1.693,0.666c0,0.381,1.027,0.445,1.027,1.796
		c0,1.244-0.518,2.019-1.445,2.019c-1.006,0-1.502-0.94-1.502-2.169c0-1.757,1.635-3.214,3.76-3.214
		c2.156,0,4.515,0.914,4.515,4.321v6.619c0.008,0.933-0.035,1.443,0.342,1.443c0.337,0,0.484-0.895,0.484-1.673h0.707
		c0.165,2.11-0.945,3.271-2.304,3.271c-1.199,0-1.769-0.639-2.111-1.49 M51.322,238.901l-1.438,0.211
		c-1.358,0.237-1.25,1.467-1.25,2.636c0,1.559,0.093,3.137,1.25,3.137c0.92,0,1.445-1.515,1.438-2.781V238.901z"/>
	<path fill="#005B55" d="M79.763,246.178c-1.625,0-3.377-1.057-3.377-3.723c0-3.108,1.906-3.962,4.106-4.2l1.833-0.237v-2.345
		c0-1.791-0.225-2.608-1.562-2.608c-0.811,0-1.695,0.288-1.693,0.67c0,0.371,1.028,0.439,1.028,1.79c0,1.246-0.521,2.02-1.446,2.02
		c-1.009,0-1.501-0.941-1.501-2.169c0-1.755,1.636-3.214,3.758-3.214c2.157,0,4.517,0.914,4.517,4.315v6.627
		c0.008,0.93-0.033,1.442,0.341,1.442c0.338,0,0.486-0.895,0.486-1.673h0.706c0.165,2.111-0.944,3.266-2.304,3.266
		c-1.201,0-1.769-0.638-2.111-1.484 M82.325,238.944l-1.437,0.214c-1.358,0.24-1.248,1.468-1.248,2.639
		c0,1.551,0.091,3.133,1.248,3.133c0.916,0,1.443-1.509,1.437-2.778V238.944z"/>
	<path fill="#005B55" d="M79.763,246.178c-1.625,0-3.377-1.057-3.377-3.723c0-3.108,1.906-3.962,4.106-4.2l1.833-0.237v-2.345
		c0-1.791-0.225-2.608-1.562-2.608c-0.811,0-1.695,0.288-1.693,0.67c0,0.371,1.028,0.439,1.028,1.79c0,1.246-0.521,2.02-1.446,2.02
		c-1.009,0-1.501-0.941-1.501-2.169c0-1.755,1.636-3.214,3.758-3.214c2.157,0,4.517,0.914,4.517,4.315v6.627
		c0.008,0.93-0.033,1.442,0.341,1.442c0.338,0,0.486-0.895,0.486-1.673h0.706c0.165,2.111-0.944,3.266-2.304,3.266
		c-1.201,0-1.769-0.638-2.111-1.484 M82.325,238.944l-1.437,0.214c-1.358,0.24-1.248,1.468-1.248,2.639
		c0,1.551,0.091,3.133,1.248,3.133c0.916,0,1.443-1.509,1.437-2.778V238.944z"/>
	<path fill="#005B55" d="M82.54,244.654c-0.113,0.184-0.97,1.523-2.777,1.523"/>
	<path fill="#005B55" d="M82.54,244.654c-0.113,0.184-0.97,1.523-2.777,1.523"/>
	<path fill="#005B55" d="M89.564,231.941l-0.323-0.889c1.568-1.505,3.359-3.443,4.056-4.85h1.419v18.765h1.58v0.933h-5.88v-0.933
		h1.591v-13.977c0-0.561-0.097-0.857-0.477-0.722C91.228,230.371,89.836,231.691,89.564,231.941"/>
	<path fill="#005B55" d="M89.564,231.941l-0.323-0.889c1.568-1.505,3.359-3.443,4.056-4.85h1.419v18.765h1.58v0.933h-5.88v-0.933
		h1.591v-13.977c0-0.561-0.097-0.857-0.477-0.722C91.228,230.371,89.836,231.691,89.564,231.941z"/>
	<path fill="#005B55" d="M97.179,244.99c1.586,0,3.754-1.47,4.188-4.961c0.185-1.467,0.109-1.146,0.141-2.12h-0.031
		c-0.375,0.527-0.884,0.895-1.699,0.895c-1.781,0-3.445-1.756-3.445-6.22c0-4.183,1.681-6.719,4.143-6.719
		c2.725,0,4.291,3.586,4.291,7.53c0,6.381-2.966,12.51-7.587,12.51V244.99 M100.442,237.383c0.749,0,1.251-1.464,1.251-4.491
		c0-3.338-0.166-5.983-1.218-5.983c-0.9,0-1.271,0.989-1.271,4.955C99.205,236.091,99.657,237.383,100.442,237.383z"/>
	<path fill="#005B55" d="M97.179,244.99c1.586,0,3.754-1.47,4.188-4.961c0.185-1.467,0.109-1.146,0.141-2.12h-0.031
		c-0.375,0.527-0.884,0.895-1.699,0.895c-1.781,0-3.445-1.756-3.445-6.22c0-4.183,1.681-6.719,4.143-6.719
		c2.725,0,4.291,3.586,4.291,7.53c0,6.381-2.966,12.51-7.587,12.51V244.99z M100.442,237.383c0.749,0,1.251-1.464,1.251-4.491
		c0-3.338-0.166-5.983-1.218-5.983c-0.9,0-1.271,0.989-1.271,4.955C99.205,236.091,99.657,237.383,100.442,237.383z"/>
	<path fill="#005B55" d="M106.598,244.984c1.584,0,3.753-1.464,4.186-4.955c0.183-1.474,0.108-1.149,0.144-2.121h-0.035
		c-0.372,0.528-0.883,0.891-1.7,0.891c-1.779,0-3.444-1.759-3.444-6.215c0-4.184,1.684-6.725,4.145-6.725
		c2.728,0,4.293,3.589,4.293,7.531c0,6.383-2.967,12.51-7.587,12.51V244.984 M109.857,237.383c0.754,0,1.251-1.47,1.251-4.491
		c0-3.344-0.165-5.988-1.217-5.988c-0.901,0-1.268,0.987-1.268,4.954C108.625,236.091,109.075,237.383,109.857,237.383z"/>
	<path fill="#005B55" d="M106.598,244.984c1.584,0,3.753-1.464,4.186-4.955c0.183-1.474,0.108-1.149,0.144-2.121h-0.035
		c-0.372,0.528-0.883,0.891-1.7,0.891c-1.779,0-3.444-1.759-3.444-6.215c0-4.184,1.684-6.725,4.145-6.725
		c2.728,0,4.293,3.589,4.293,7.531c0,6.383-2.967,12.51-7.587,12.51V244.984z M109.857,237.383c0.754,0,1.251-1.47,1.251-4.491
		c0-3.344-0.165-5.988-1.217-5.988c-0.901,0-1.268,0.987-1.268,4.954C108.625,236.091,109.075,237.383,109.857,237.383z"/>
	<path fill="#005B55" d="M122.537,226.825c-1.586,0-3.757,1.464-4.19,4.954c-0.179,1.47-0.11,1.15-0.141,2.122h0.03
		c0.38-0.528,0.886-0.894,1.706-0.894c1.777,0,3.439,1.753,3.439,6.218c0,4.185-1.681,6.72-4.14,6.72
		c-2.729,0-4.294-3.59-4.294-7.524c0-6.385,2.966-12.515,7.589-12.515V226.825 M119.273,234.429c-0.749,0-1.251,1.464-1.251,4.488
		c0,3.339,0.168,5.983,1.22,5.983c0.9,0,1.266-0.986,1.266-4.954C120.507,235.72,120.061,234.429,119.273,234.429z"/>
	<g>
		<path fill="#005B55" d="M122.537,226.825c-1.586,0-3.757,1.464-4.19,4.954c-0.179,1.47-0.11,1.15-0.141,2.122h0.03
			c0.38-0.528,0.886-0.894,1.706-0.894c1.777,0,3.439,1.753,3.439,6.218c0,4.185-1.681,6.72-4.14,6.72
			c-2.729,0-4.294-3.59-4.294-7.524c0-6.385,2.966-12.515,7.589-12.515V226.825L122.537,226.825z M119.273,234.429
			c-0.749,0-1.251,1.464-1.251,4.488c0,3.339,0.168,5.983,1.22,5.983c0.9,0,1.266-0.986,1.266-4.954
			C120.507,235.72,120.061,234.429,119.273,234.429z"/>
	</g>
</g>
<g>
	<path fill="#B37E2C" d="M57.027,179.748v32.229h-2.209V181.97h-1.57c0.017,0,0-2.222,0-2.222S57.034,179.717,57.027,179.748"/>
	<path fill="#B37E2C" d="M57.027,179.748v32.229h-2.209V181.97h-1.57c0.017,0,0-2.222,0-2.222S57.034,179.717,57.027,179.748z"/>
	<path fill="#B37E2C" d="M39.656,150.139c1.609-1.679,3.88-2.729,6.389-2.729c4.889,0,8.853,3.962,8.853,8.853
		c0,4.89-3.961,8.852-8.853,8.852c-4.89,0-8.85-3.962-8.85-8.852C37.195,153.887,38.132,151.726,39.656,150.139l-1.822-1.338
		c-1.793,1.973-2.882,4.584-2.882,7.461c0,6.131,4.967,11.101,11.094,11.101c6.129,0,11.096-4.972,11.096-11.101
		c0-6.128-4.966-11.098-11.096-11.098c-3.254,0-6.178,1.403-8.211,3.64L39.656,150.139"/>
	<path fill="#B37E2C" d="M39.656,150.139c1.609-1.679,3.88-2.729,6.389-2.729c4.889,0,8.853,3.962,8.853,8.853
		c0,4.89-3.961,8.852-8.853,8.852c-4.89,0-8.85-3.962-8.85-8.852C37.195,153.887,38.132,151.726,39.656,150.139l-1.822-1.338
		c-1.793,1.973-2.882,4.584-2.882,7.461c0,6.131,4.967,11.101,11.094,11.101c6.129,0,11.096-4.972,11.096-11.101
		c0-6.128-4.966-11.098-11.096-11.098c-3.254,0-6.178,1.403-8.211,3.64L39.656,150.139z"/>
	<path fill="#B37E2C" d="M64.161,150.139c1.609-1.679,3.878-2.729,6.389-2.729c4.888,0,8.85,3.962,8.85,8.853
		c0,4.89-3.964,8.852-8.85,8.852c-4.887,0-8.851-3.962-8.851-8.852C61.701,153.887,62.634,151.726,64.161,150.139l-1.823-1.338
		c-1.791,1.973-2.881,4.584-2.881,7.461c0,6.131,4.966,11.101,11.093,11.101c6.129,0,11.096-4.972,11.096-11.101
		c0-6.128-4.967-11.098-11.096-11.098c-3.254,0-6.181,1.403-8.212,3.64L64.161,150.139"/>
	<path fill="#B37E2C" d="M64.161,150.139c1.609-1.679,3.878-2.729,6.389-2.729c4.888,0,8.85,3.962,8.85,8.853
		c0,4.89-3.964,8.852-8.85,8.852c-4.887,0-8.851-3.962-8.851-8.852C61.701,153.887,62.634,151.726,64.161,150.139l-1.823-1.338
		c-1.791,1.973-2.881,4.584-2.881,7.461c0,6.131,4.966,11.101,11.093,11.101c6.129,0,11.096-4.972,11.096-11.101
		c0-6.128-4.967-11.098-11.096-11.098c-3.254,0-6.181,1.403-8.212,3.64L64.161,150.139z"/>
	<path fill="#B37E2C" d="M88.755,150.139c1.611-1.679,3.877-2.729,6.39-2.729c4.885,0,8.851,3.962,8.851,8.853
		c0,4.89-3.966,8.852-8.851,8.852c-4.892,0-8.85-3.962-8.85-8.852C86.295,153.887,87.229,151.726,88.755,150.139l-1.822-1.338
		c-1.792,1.973-2.882,4.584-2.882,7.461c0,6.131,4.966,11.101,11.093,11.101c6.129,0,11.096-4.972,11.096-11.101
		c0-6.128-4.968-11.098-11.096-11.098c-3.253,0-6.182,1.403-8.211,3.64L88.755,150.139"/>
	<path fill="#B37E2C" d="M88.755,150.139c1.611-1.679,3.877-2.729,6.39-2.729c4.885,0,8.851,3.962,8.851,8.853
		c0,4.89-3.966,8.852-8.851,8.852c-4.892,0-8.85-3.962-8.85-8.852C86.295,153.887,87.229,151.726,88.755,150.139l-1.822-1.338
		c-1.792,1.973-2.882,4.584-2.882,7.461c0,6.131,4.966,11.101,11.093,11.101c6.129,0,11.096-4.972,11.096-11.101
		c0-6.128-4.968-11.098-11.096-11.098c-3.253,0-6.182,1.403-8.211,3.64L88.755,150.139z"/>
	<path fill="#B37E2C" d="M51.82,159.217c1.612-1.68,3.877-2.729,6.389-2.729c4.89,0,8.853,3.969,8.853,8.853
		c0,4.891-3.963,8.851-8.853,8.851c-4.887,0-8.85-3.96-8.85-8.851C49.36,162.965,50.297,160.803,51.82,159.217l-1.822-1.336
		c-1.789,1.969-2.884,4.588-2.884,7.459c0,6.129,4.97,11.093,11.096,11.093c6.126,0,11.096-4.965,11.096-11.093
		c0-6.13-4.969-11.092-11.096-11.092c-3.254,0-6.181,1.398-8.211,3.633L51.82,159.217"/>
	<path fill="#B37E2C" d="M51.82,159.217c1.612-1.68,3.877-2.729,6.389-2.729c4.89,0,8.853,3.969,8.853,8.853
		c0,4.891-3.963,8.851-8.853,8.851c-4.887,0-8.85-3.96-8.85-8.851C49.36,162.965,50.297,160.803,51.82,159.217l-1.822-1.336
		c-1.789,1.969-2.884,4.588-2.884,7.459c0,6.129,4.97,11.093,11.096,11.093c6.126,0,11.096-4.965,11.096-11.093
		c0-6.13-4.969-11.092-11.096-11.092c-3.254,0-6.181,1.398-8.211,3.633L51.82,159.217z"/>
	<path fill="#B37E2C" d="M76.414,159.217c1.608-1.68,3.879-2.729,6.389-2.729c4.892,0,8.853,3.969,8.853,8.853
		c0,4.891-3.961,8.851-8.853,8.851c-4.89,0-8.849-3.96-8.849-8.851C73.954,162.965,74.888,160.803,76.414,159.217l-1.823-1.336
		c-1.792,1.969-2.882,4.588-2.882,7.459c0,6.129,4.969,11.093,11.094,11.093s11.095-4.965,11.095-11.093
		c0-6.13-4.97-11.092-11.095-11.092c-3.254,0-6.183,1.398-8.212,3.633L76.414,159.217"/>
	<path fill="#B37E2C" d="M76.414,159.217c1.608-1.68,3.879-2.729,6.389-2.729c4.892,0,8.853,3.969,8.853,8.853
		c0,4.891-3.961,8.851-8.853,8.851c-4.89,0-8.849-3.96-8.849-8.851C73.954,162.965,74.888,160.803,76.414,159.217l-1.823-1.336
		c-1.792,1.969-2.882,4.588-2.882,7.459c0,6.129,4.969,11.093,11.094,11.093s11.095-4.965,11.095-11.093
		c0-6.13-4.97-11.092-11.095-11.092c-3.254,0-6.183,1.398-8.212,3.633L76.414,159.217z"/>
	<polyline fill="#B37E2C" points="29.165,145.317 26.954,145.317 26.954,138.338 114.456,138.338 114.456,145.335 112.247,145.335 
		112.247,140.548 29.165,140.548 29.165,145.317 	"/>
	<polygon fill="#B37E2C" points="29.165,145.317 26.954,145.317 26.954,138.338 114.456,138.338 114.456,145.335 112.247,145.335 
		112.247,140.548 29.165,140.548 	"/>
	<path fill="#B37E2C" d="M69.58,182.643v26.3c-0.021,0.604-0.551,1.085-1.154,1.085c-0.605,0-1.145-0.481-1.145-1.085v-26.3
		c0-0.605,0.54-1.093,1.145-1.093C69.029,181.55,69.558,182.037,69.58,182.643h2.201c0-1.816-1.545-3.278-3.354-3.278
		c-1.811,0-3.355,1.462-3.355,3.278v26.3c0,1.812,1.544,3.278,3.355,3.278c1.809,0,3.354-1.466,3.354-3.278v-26.3H69.58"/>
	<path fill="#B37E2C" d="M69.58,182.643v26.3c-0.021,0.604-0.551,1.085-1.154,1.085c-0.605,0-1.145-0.481-1.145-1.085v-26.3
		c0-0.605,0.54-1.093,1.145-1.093C69.029,181.55,69.558,182.037,69.58,182.643h2.201c0-1.816-1.545-3.278-3.354-3.278
		c-1.811,0-3.355,1.462-3.355,3.278v26.3c0,1.812,1.544,3.278,3.355,3.278c1.809,0,3.354-1.466,3.354-3.278v-26.3H69.58z"/>
	<path fill="#B37E2C" d="M84.366,182.63v26.294c-0.022,0.603-0.553,1.095-1.157,1.095c-0.605,0-1.145-0.492-1.145-1.095V182.63
		c0-0.603,0.539-1.094,1.145-1.094C83.813,181.536,84.344,182.027,84.366,182.63h2.2c0-1.813-1.545-3.278-3.357-3.278
		c-1.812,0-3.356,1.465-3.356,3.278v26.294c0,1.813,1.545,3.284,3.356,3.284c1.812,0,3.357-1.471,3.357-3.284V182.63H84.366"/>
	<path fill="#B37E2C" d="M84.366,182.63v26.294c-0.022,0.603-0.553,1.095-1.157,1.095c-0.605,0-1.145-0.492-1.145-1.095V182.63
		c0-0.603,0.539-1.094,1.145-1.094C83.813,181.536,84.344,182.027,84.366,182.63h2.2c0-1.813-1.545-3.278-3.357-3.278
		c-1.812,0-3.356,1.465-3.356,3.278v26.294c0,1.813,1.545,3.284,3.356,3.284c1.812,0,3.357-1.471,3.357-3.284V182.63H84.366z"/>
	<path fill="#F4462F" d="M49.334,77.576c5.91,9.082,15.763,13.074,24.93,16.622c7.54,2.778,15.679,4.651,21.36,11.463
		c3.904,4.604,4.696,11.485,2.779,17.239c-1.188,3.812-4.121,7.296-7.603,9.562c-2.909,1.877-6.44,2.812-9.829,3.069l-0.425,0.006
		c3.459-2.179,5.667-5.984,5.207-10.235c-0.377-2.469-1.411-4.803-3.554-6.392c-4.055-3.395-9.17-4.233-13.578-6.788
		c-5.488-2.804-11.041-7.497-13.446-13.318c-0.262,0.506-0.462,1.105-0.617,1.675c-1.801,6.942-0.954,15.11,1.787,21.407
		c2.139,5.269,6.016,10.646,11.22,13.604c-1.016,0.15-2.072,0.022-3.109,0.022c-9.213-0.599-17.17-5.824-22.816-13.362
		c-2.621-3.438-4.576-7.157-5.994-11.112c-1.826-5.077-2.668-10.537-2.825-16.313l0.047-1.208c3.262,4.011,7.624,7.448,12.716,8.022
		c-2.444-2.668-3.526-5.999-4.384-9.393c-0.903-4.053-0.995-9.057,0.064-13.093c0.794-3.195,1.92-6.26,3.46-9.15
		c0.354-0.593,0.664-1.209,1.082-1.761C46.294,71.556,47.442,74.709,49.334,77.576z"/>
	<path fill="#B37E2C" d="M70.556,12.057c0.028,0,1.854,5.952,1.854,5.952h6.064l-4.928,3.703l1.822,5.867l-4.841-3.613l-4.787,3.585
		l1.795-5.867l-4.896-3.675h6.065L70.556,12.057z"/>
	<path fill="#9557A9" d="M93.051,23.669c2.359,1.589,4.717,3.309,6.811,5.403c-2.138-0.022-4.339,0.042-6.391,0.309l-0.002,0.087
		c-0.044,2.825-0.044,5.666-0.418,8.354c-1.452-2.513-3.065-4.96-4.72-7.388l-0.121-0.158c-2.686,0.533-5.3,1.44-7.857,2.346
		c1.278-2.491,2.845-4.872,4.386-7.278c-1.521-1.915-3.087-3.77-4.893-5.532c2.732,0.308,5.382,0.962,8.007,1.578l0.061-0.079
		c1.217-1.566,2.559-3.109,4.012-4.496C92.522,18.999,92.716,21.357,93.051,23.669z"/>
	<path fill="#00B1EA" d="M88.244,36.434c2.314,1.325,4.472,2.998,6.587,4.783l0.114,0.104c2.03-0.706,4.038-1.709,5.862-2.857
		c1.06-0.668,2.178-1.399,3.062-2.358l-0.019,0.238c-0.511,4.122-1.744,7.961-3.262,11.661c2.601,4.212,4.627,8.709,4.736,13.911
		c-2.445-2.689-5.271-4.996-8.334-6.627l-0.099-0.051c-2.689,3.965-5.61,8.134-9.531,11.221c-0.706,0.549-1.415,1.126-2.165,1.565
		c0.371-0.882,0.745-1.847,1.037-2.735c1.314-3.947,1.896-8.22,1.854-12.695c-1.939-0.708-4.058-0.883-6.264-0.992
		c-1.628-0.042-3.308,0.021-4.871,0.308c0.419-0.596,1.078-1.233,1.656-1.739c0.307-0.308,0.683-0.578,1.034-0.907
		c2.448-2.029,5.155-3.66,7.89-5.091c-0.397-3.196-1.36-6.295-2.617-9.157l0.084,0.03C86.129,35.354,87.186,35.904,88.244,36.434z"
		/>
	<path fill="#EA2C78" d="M78.374,68.329c0.086,0.033,0.354,0.08,0.48,0.122c5.357,1.215,11.993,1.733,17.522,0.54
		c0.904-0.174,1.765-0.481,2.623-0.748c-1.213,3.77-4.075,7.055-7.249,9.698c-2.052,1.696-4.409,2.647-6.747,3.66l-0.059,0.03
		c2.606,5.094,6.825,9.67,11.411,13.482c1.012,0.837,2.082,1.58,3.136,2.309l-0.38,0.009c-8.135-0.641-15.743-2.516-22.683-5.973
		c-4.257-2.095-8.375-4.961-11.817-8.469c-6.569-7.015-9.494-12.708-9.961-21.956c-0.175-3.413,0.287-6.743,1.453-9.697
		c0.708,4.673,3.24,8.818,7.08,11.968l0.247,0.183c1.235-6.482,3.94-12.484,8.81-17.374c1.477-1.457,3.019-2.782,4.759-3.684
		c-1.83,4.124-2.459,8.97-1.984,13.846c0.413,4.197,1.458,8.177,3.222,11.812C78.258,68.134,78.352,68.296,78.374,68.329z"/>
</g>
</svg>
